<svg xmlns="http://www.w3.org/2000/svg" viewBox="0 0 500 500"><g id="freepik--Shadow--inject-53"><ellipse cx="250" cy="429.81" rx="186.05" ry="27.47" style="fill:#ebebeb"></ellipse></g><g id="freepik--Floor--inject-53"><polygon points="45.75 353.2 96.82 352.96 147.88 352.87 250 352.71 352.12 352.87 403.19 352.96 454.25 353.2 403.19 353.45 352.12 353.54 250 353.7 147.88 353.54 96.82 353.45 45.75 353.2" style="fill:#263238"></polygon></g><g id="freepik--Hearts--inject-53"><path d="M229.7,112.24c4.93,3.35,12,3,12,3s3.94-5.85,3.61-11.8c-.26-5-3.85-8.48-7.4-7.68-5.09,1.14-1.93,9.34-1.93,9.34s-5.39-7-9-3.18C224.44,104.56,225.59,109.44,229.7,112.24Z" style="fill:#FF7B00"></path><path d="M244.28,80.83c1.37,3.7,5.29,6.23,5.29,6.23s4.37-1.65,6.48-5c1.76-2.78,1.18-6-1-7-3.18-1.34-4.63,4.29-4.63,4.29s-.23-5.81-3.63-5.16C244.39,74.68,243.13,77.75,244.28,80.83Z" style="fill:#FF7B00"></path><path d="M169.45,216.17c24.1,48.59,81.41,77.42,81.41,77.42s57.32-28.83,81.36-77.42c20.07-40.53,7.36-84.33-24.31-93.9-45.4-13.73-57.05,38.34-57.05,38.34s-11.65-52.07-57.09-38.34C162.1,131.84,149.39,175.64,169.45,216.17Z" style="fill:#FF7B00"></path><path d="M169.45,216.17c24.1,48.59,81.41,77.42,81.41,77.42s57.32-28.83,81.36-77.42c20.07-40.53,7.36-84.33-24.31-93.9-45.4-13.73-57.05,38.34-57.05,38.34s-11.65-52.07-57.09-38.34C162.1,131.84,149.39,175.64,169.45,216.17Z" style="fill:#fff;opacity:0.5"></path><path d="M334.32,170.37c.8,3.87,4.3,6.95,4.3,6.95s4.57-1,7.15-3.95c2.16-2.48,2.07-5.8,0-7.06-2.94-1.8-5.22,3.55-5.22,3.55s.64-5.78-2.81-5.65C335.35,164.3,333.65,167.15,334.32,170.37Z" style="fill:#FF7B00"></path><path d="M156.57,153.74c5.79,5.67,15.3,6.91,15.3,6.91s6.66-6.89,7.66-14.93c.83-6.7-3.12-12.26-8.06-12-7.08.3-4.82,12-4.82,12s-5.54-10.58-11.28-6.4C151.38,142.21,151.74,149,156.57,153.74Z" style="fill:#FF7B00"></path></g><g id="freepik--Character--inject-53"><path d="M426,415.47c-3.28,1.2-100.6,3.11-104.26.88-.43-.23-2-32.42-2-32.42.11-.46-1.51-3.56-4-7.87-6.94-12.11-20.51-33.8-20.51-33.8L353,324.8l23.73,47.52,6,12.13s13.27,5.19,24.84,10.36c0,0,0,0,0,0C414.8,398,421,400.92,422.45,402,426.17,404.86,429.33,414.31,426,415.47Z" style="fill: rgb(247, 169, 160);"></path><path d="M426,415.47c-3.28,1.2-100.6,3.11-104.26.88-.43-.23-2-32.42-2-32.42.11-.46-1.51-3.56-4-7.87l61-3.74,6,12.13s13.27,5.19,24.84,10.36c0,0,0,0,0,0C414.8,398,421,400.92,422.45,402,426.17,404.86,429.33,414.31,426,415.47Z" style="fill:#fff"></path><path d="M426.45,415.84c-3.38,1.19-100.82,2.87-104.58.58-1.43-.86-3.15-15.86-2.1-32.49l62.82-1S419,399,422.82,402,429.83,414.64,426.45,415.84Z" style="fill:#FF7B00"></path><path d="M347.36,417.53c-13.87-.07-24.3-.4-25.49-1.1-1.43-.86-3.15-15.86-2.1-32.5l1.53,0Z" style="opacity:0.1"></path><path d="M425,412c-16.34-.12-82.25.94-98.42,2.06-.13,0-.13.1,0,.1,16.19.48,82.1-1.11,98.42-1.89C425.33,412.22,425.33,412,425,412Z" style="fill:#263238"></path><path d="M416.5,398.56a13.16,13.16,0,0,0-9.71,4.15,12.74,12.74,0,0,0-3.5,8.79c0,.09.19.09.2,0a15.16,15.16,0,0,1,13-12.73A.1.1,0,0,0,416.5,398.56Z" style="fill:#263238"></path><path d="M387.74,384.48c-6.54,0-14.08,2.45-18.05,7.87-.15.21.15.43.34.32a90.93,90.93,0,0,1,17.84-7.39A.41.41,0,0,0,387.74,384.48Z" style="fill:#263238"></path><path d="M392.82,386.36c-6.54,0-14.08,2.46-18.05,7.87-.15.21.15.43.34.32A90.93,90.93,0,0,1,393,387.16.41.41,0,0,0,392.82,386.36Z" style="fill:#263238"></path><path d="M397.9,388.24c-6.53,0-14.07,2.46-18,7.87-.15.21.15.43.34.32A90.93,90.93,0,0,1,398,389,.41.41,0,0,0,397.9,388.24Z" style="fill:#263238"></path><path d="M403,390.12c-6.53,0-14.07,2.46-18,7.87-.16.21.14.43.33.33a90.36,90.36,0,0,1,17.84-7.4A.41.41,0,0,0,403,390.12Z" style="fill:#263238"></path><path d="M330.46,398.43c-7.34.15-7.12,11.55.23,11.4S337.8,398.29,330.46,398.43Z" style="fill:#263238"></path><path d="M394.51,366.91c-3.36-2.69-7.48.07-9.47,2.95a34.29,34.29,0,0,0-5.66,16.82.17.17,0,0,0,.21.18.8.8,0,0,0,1.19.51c4.6-3.3,9.92-6.26,13.37-10.87C396.17,373.81,397.68,369.45,394.51,366.91Zm-7.78,14c-2.23,1.68-4.52,3.24-6.68,5a102.07,102.07,0,0,1,3.52-9.75,36.76,36.76,0,0,1,2.31-4.45c1.39-2.19,7.71-7.76,8.48-.66C394.79,375,389.38,378.94,386.73,380.94Z" style="fill:#263238"></path><path d="M363.18,389.38c5.71.78,11.55-.94,17.13-1.91a.8.8,0,0,0,.47-1.2.17.17,0,0,0,0-.27,34.33,34.33,0,0,0-16-7.77c-3.45-.61-8.3.4-8.74,4.68C355.68,387,359.85,388.93,363.18,389.38Zm-4-3.65c-4.52-5.53,3.89-6.13,6.42-5.58a36.76,36.76,0,0,1,4.79,1.47c3.27,1.19,6.3,2.83,9.42,4.33-2.77.31-5.49.85-8.24,1.25C368.27,387.69,361.66,388.78,359.17,385.73Z" style="fill:#263238"></path><path d="M311.39,375.43,379.9,365S347,299.4,326.58,263.78c-11.34-19.8-42.35-20.77-57.43,3-20.15,31.7-35.78,61.4-44.74,77.87l-15.55,1.33,3.36,25.39,51.65,11.57c19.78,2.37,33.67-32.86,34-32.26C300.37,355.27,311.39,375.43,311.39,375.43Z" style="fill:#455a64"></path><path d="M298.23,350.8c-2-4-3.47-8.23-5.2-12.32s-3.36-7.91-5-11.87c-3.36-8-6.84-16-10.1-24-1.83-4.52-3.51-9.09-5.22-13.66a.09.09,0,1,0-.17.06q2,6.47,4.14,12.88c-.38-.74-.76-1.48-1.17-2.19-1.09-2-2.23-3.91-3.37-5.86-.05-.07-.16,0-.12.07,1.05,2,2.11,3.9,3.2,5.83.54,1,1.13,1.91,1.71,2.87a300.45,300.45,0,0,0,14.21,35.11c2.18,4.47,4.73,8.75,6.91,13.21C298.09,351.07,298.3,350.94,298.23,350.8Z" style="fill:#263238"></path><path d="M312.92,363.25c-3.31-5.1-11.17-20.53-14-25.86-5.7-10.79-10.92-21.8-15.85-33-2.78-6.3-5.39-12.67-8-19.06,0,0-.09,0-.07,0a361.4,361.4,0,0,0,13.52,33.84c5,11.08,21.23,40.91,24.15,44.14C312.81,363.49,313,363.38,312.92,363.25Z" style="fill:#263238"></path><path d="M270.38,293.9c-5.9,10.54-11.94,21-17.87,31.54-3,5.32-6,10.64-8.95,16-1.4,2.51-2.75,5.05-4.2,7.53a14.13,14.13,0,0,1-5.41,5.62c-2.66,1.46-5.71,2.16-8.59,3-3.34,1-6.65,2-10,2.94-.16,0-.09.28.07.24,3-.8,6-1.49,9-2.23a79.2,79.2,0,0,0,8.16-2.2,13.29,13.29,0,0,0,6.06-4.18,49.66,49.66,0,0,0,4.24-7.08q8.88-16.24,17.6-32.58c3.31-6.18,6.59-12.39,9.93-18.55C270.45,293.89,270.4,293.86,270.38,293.9Z" style="fill:#263238"></path><path d="M309.83,365.81c4.1-.74,8.31-1.1,12.45-1.63l12.45-1.62c8.28-1.08,36.46-5.57,38.59-6.27a.14.14,0,0,0-.05-.27c-2-.06-20.47,2.4-24.61,3-8.28,1.22-16.5,2.69-24.75,4.08-2.36.4-4.71.85-7.06,1.27s-4.7.92-7.06,1.22A.11.11,0,0,0,309.83,365.81Z" style="fill:#263238"></path><path d="M350.91,437c-1.09-3.31-59.83-80.92-63.84-82.42-.46-.19-26.72,18.49-26.72,18.49-1.08,1.45-51-9.1-51-9.1l-.5,60.21,90.92-1.94s12.28,7.22,23.51,13.11h0c6.91,3.64,13,6.71,14.78,7.17C342.65,443.64,352,440.26,350.91,437Z" style="fill: rgb(247, 169, 160);"></path><path d="M338.11,442.48c-1.76-.45-7.87-3.52-14.78-7.17h0c-11.22-5.88-23.51-13.11-23.51-13.11l-20.23.44-31.68-51.12c6.95,1.23,12.14,2,12.49,1.51,0,0,26.24-18.69,26.71-18.48,4,1.49,62.74,79.09,63.84,82.41S342.66,443.65,338.11,442.48Z" style="fill:#fff"></path><path d="M351.45,437.07c-1.16-3.4-60.16-81-64.28-82.5-1.56-.59-14.4,7.34-26.82,18.46l38.1,50s35.15,18.62,39.85,19.82S352.6,440.46,351.45,437.07Z" style="fill:#FF7B00"></path><path d="M347.5,438.31c-10.21-12.76-50.18-65.18-59.31-78.57-.07-.11,0-.16.08-.06,10.4,12.42,50,65.17,59.44,78.47C347.91,438.43,347.72,438.58,347.5,438.31Z" style="fill:#263238"></path><path d="M331.72,440a13.14,13.14,0,0,1-2.75-10.2,12.74,12.74,0,0,1,4.73-8.18c.08-.06.19.08.12.15-4.52,4.62-5.47,12.64-1.94,18.1C332,439.93,331.8,440.05,331.72,440Z" style="fill:#263238"></path><path d="M302.86,426.08c-4-5.15-6.79-12.58-5-19.05.07-.25.43-.15.46.06a90.51,90.51,0,0,0,5.24,18.59A.41.41,0,0,1,302.86,426.08Z" style="fill:#263238"></path><path d="M307.48,428.91c-4-5.15-6.78-12.58-5-19.06.07-.25.43-.14.47.07a89.86,89.86,0,0,0,5.23,18.59A.41.41,0,0,1,307.48,428.91Z" style="fill:#263238"></path><path d="M312.1,431.73c-4-5.15-6.78-12.58-5-19.05.07-.25.43-.15.47.07a90.4,90.4,0,0,0,5.23,18.58A.41.41,0,0,1,312.1,431.73Z" style="fill:#263238"></path><path d="M316.72,434.56c-4-5.15-6.78-12.58-5-19.05.07-.26.42-.15.46.06a90.48,90.48,0,0,0,5.23,18.59A.41.41,0,0,1,316.72,434.56Z" style="fill:#263238"></path><path d="M278.36,372.45c-4.42-5.85,4.66-12.74,9.1-6.88S282.79,378.31,278.36,372.45Z" style="fill:#263238"></path><path d="M300.56,436.05c1.49-5.57.51-11.58.26-17.23a.8.8,0,0,0-1.13-.62.18.18,0,0,0-.28-.05A34.42,34.42,0,0,0,289.7,433c-1,3.35-.64,8.29,3.55,9.27C297.21,443.19,299.69,439.3,300.56,436.05Zm-4.13,3.52c-6.05,3.79-5.59-4.63-4.73-7.07a37.45,37.45,0,0,1,2.07-4.57,102.47,102.47,0,0,1,5.48-8.8c-.05,2.79.15,5.55.2,8.34C299.52,430.79,299.77,437.48,296.43,439.57Z" style="fill:#263238"></path><path d="M282,402.19c-3.09,3-.88,7.43,1.74,9.77a34.18,34.18,0,0,0,16,7.72.17.17,0,0,0,.21-.18.8.8,0,0,0,.65-1.11c-2.69-5-5-10.64-9.1-14.64C289.09,401.42,285,399.36,282,402.19ZM295,411.68c1.39,2.41,2.65,4.88,4.12,7.25-3.11-1.52-6.27-2.89-9.23-4.72a36.5,36.5,0,0,1-4.13-2.85c-2-1.65-6.73-8.62.42-8.5C290.09,402.93,293.33,408.8,295,411.68Z" style="fill:#263238"></path><path d="M235.45,350s-99.61-17.49-127.95-11.74C68,346.29,60.71,393,90,410.44c37.14,22.07,186.72,17.79,186.72,17.79L241,367.68s-54.95-11.56-104.78-9.88L235.89,373Z" style="fill:#455a64"></path><path d="M243.39,371.59a1.41,1.41,0,0,1-.07-.31l-.06-.25c0-.2-.11-.39-.16-.59-.11-.4-.26-.79-.41-1.18s-.33-.77-.51-1.16a7.87,7.87,0,0,0-.67-1.06s-.06-.05-.09-.07l-.06-.05-.09,0-.09,0c-6.05-1.12-47.11-7-53.22-7.7s-12.33-1.27-18.5-1.79A366.67,366.67,0,0,0,132.4,356c-1.16,0-2.31.06-3.47.1-.25-.08-.51-.12-.76-.18-.6-.15-1.19-.29-1.78-.41-1.12-.21-2.24-.38-3.37-.55-2.33-.36-4.68-.6-7-1a.11.11,0,0,0-.05.22c2.34.52,4.64,1.2,7,1.71l2,.43c-4.54.23-9.06.58-13.58,1-.15,0-.15.24,0,.23,6.16-.36,12.36-.41,18.52-.31s12.24.24,18.36.59c12.36.71,24.72,1.82,37,3.11,6.91.72,48.78,6.83,55.72,7.12,0,0,.06,0,.09,0a2.72,2.72,0,0,0,.19.47c.19.38.38.75.59,1.12s.39.71.62,1.05l.34.5.17.25a1.51,1.51,0,0,1,.18.26C243.24,371.84,243.48,371.73,243.39,371.59Z" style="fill:#263238"></path><path d="M263.85,424.55c-2.21-3.54-4.09-7.31-6.12-11s-4.06-7.32-6.1-11c-4.06-7.3-18.65-31.83-20.09-33.54a.14.14,0,0,0-.24.14c.69,1.9,9.8,18.14,11.89,21.76,4.19,7.24,8.6,14.34,12.94,21.49,1.24,2,2.52,4.06,3.78,6.09s2.6,4,3.75,6.11C263.73,424.8,263.93,424.68,263.85,424.55Z" style="fill:#263238"></path><path d="M231.12,375.18c-3.64-.87-7.38-1.44-11.06-2.14L209,371q-11.08-2.06-22.21-3.94c-14.78-2.49-29.63-4.55-44.56-6-8.42-.81-16.87-1.34-25.31-2-.18,0-.18.27,0,.28,15,.67,30.05,2.71,44.94,4.85s29.45,4.44,44.14,6.92q6.22,1,12.44,2.13c4.21.73,8.42,1.63,12.65,2.17A.13.13,0,0,0,231.12,375.18Z" style="fill:#263238"></path><path d="M207.47,260.49c22.75,23.17,52.8,43.46,60.32,43.45,10.31,0,32.7-27.13,41.63-36.11,3.61-3.62-31.2-27.67-34.35-23.2a162.12,162.12,0,0,1-15.46,18.62c-.79,1.13-34.71-12.15-44.55-16.6C193.18,236.76,196.18,249,207.47,260.49Z" style="fill: rgb(247, 169, 160);"></path><path d="M304.55,209.58a5.75,5.75,0,0,1,4,5.47,10.46,10.46,0,0,1,6.33.79c3.34,1.76,2.06,7.77,2.06,7.77a11.35,11.35,0,0,1,6.46,1.62c3,2,2.6,8.26,2.6,8.26a9.87,9.87,0,0,1,4.78,5c2.28,5.95-3.58,13.71-7.26,18.68s-18.75,15.63-21.41,17.95L270,251.81s10.14-27,15.28-32.2C289.64,215.2,299.94,208.16,304.55,209.58Z" style="fill: rgb(247, 169, 160);"></path><path d="M308,215.14c-5.73,3.58-10.1,8.66-14.75,13.48-.1.11.07.27.17.16,4.57-4.85,10-8.73,14.78-13.39A.16.16,0,0,0,308,215.14Z" style="fill:#263238"></path><path d="M316.47,223.41a17,17,0,0,0-3.26,3.25q-1.62,1.86-3.16,3.75-3.1,3.81-6,7.76c-.09.12.07.28.16.16,2.07-2.53,4.17-5,6.34-7.45,1.08-1.22,2.18-2.43,3.28-3.63a20.83,20.83,0,0,0,3-3.54A.23.23,0,0,0,316.47,223.41Z" style="fill:#263238"></path><path d="M325.93,233.59a12.46,12.46,0,0,0-2.78,3.09c-.91,1.17-1.84,2.34-2.77,3.51-1.86,2.33-3.72,4.65-5.66,6.92-.1.11.07.27.17.15,2-2.28,4-4.54,6-6.85q1.44-1.69,2.87-3.41a11.53,11.53,0,0,0,2.33-3.32C326.08,233.61,326,233.56,325.93,233.59Z" style="fill:#263238"></path><path d="M233.36,291.11l7.72-38.23a251.24,251.24,0,0,0-27.88-11c-16.1-5.32-21.76,1.15-8.37,19.68A145.59,145.59,0,0,0,233.36,291.11Z" style="fill:#FF7B00"></path><path d="M213,264.23a4.47,4.47,0,0,1,2.37-.12,2.28,2.28,0,0,1,1.47,2.09,1.78,1.78,0,0,0,.81,1.53,1.87,1.87,0,0,0,.94.3c.38.08.75.12,1.13.22a4,4,0,0,1-2.37.09,2.28,2.28,0,0,1-1.4-2.13,1.76,1.76,0,0,0-.87-1.48,1.9,1.9,0,0,0-1-.28C213.76,264.38,213.38,264.33,213,264.23Z" style="fill:#fff"></path><path d="M221.47,244.73a2.11,2.11,0,0,1-1.14.34,1.81,1.81,0,0,0-1.53.82,1.88,1.88,0,0,0-.31.94c-.07.37-.11.75-.21,1.12a4,4,0,0,1-.09-2.37,2.27,2.27,0,0,1,1.81-1.37h0Z" style="fill:#fff"></path><path d="M240.3,256.74l-.2,1a1.81,1.81,0,0,1-.3-.25,1.75,1.75,0,0,0-1.66-.44,1.93,1.93,0,0,0-.88.48c-.32.21-.61.45-.95.64a4.43,4.43,0,0,1,1.59-1.76A2.23,2.23,0,0,1,240.3,256.74Z" style="fill:#fff"></path><path d="M203.51,252.89c-.43.61-.75,1.36-1.61,1.74a2.12,2.12,0,0,1-1.45.08c-.3-.53-.57-1-.82-1.54a2.31,2.31,0,0,1,.39.31,1.78,1.78,0,0,0,1.66.5,1.81,1.81,0,0,0,.88-.45C202.88,253.32,203.18,253.08,203.51,252.89Z" style="fill:#fff"></path><path d="M235.49,251.75c-.89,2.77-1.37,5.69-2,8.52s-1.26,5.4-1.8,8.12q-1.69,8.48-3,17c0,.09.15.14.17,0q2-8.32,3.71-16.67c.58-2.77,1.08-5.56,1.59-8.34s1.24-5.73,1.55-8.63A.09.09,0,0,0,235.49,251.75Z" style="fill:#263238"></path><path d="M238.84,264l-5.48,27.11a145.59,145.59,0,0,1-28.53-29.58c-10.45-14.47-9.3-21.58-.63-21.47Z" style="opacity:0.1"></path><path d="M250.85,325c-.39.54-7.85,23.08-19.63,26.64-26.62,8-70.5.36-70.88,0-1.48-1.45,11.44-78.26,26.16-103.88,5-8.64,22.42-11.51,29.09-3.9C234.73,265.7,252,323.47,250.85,325Z" style="fill:#FF7B00"></path><path d="M213,264.23a4.47,4.47,0,0,1,2.37-.12,2.28,2.28,0,0,1,1.47,2.09,1.78,1.78,0,0,0,.81,1.53,1.87,1.87,0,0,0,.94.3c.38.08.75.12,1.13.22a4,4,0,0,1-2.37.09,2.28,2.28,0,0,1-1.4-2.13,1.76,1.76,0,0,0-.87-1.48,1.9,1.9,0,0,0-1-.28C213.76,264.38,213.38,264.33,213,264.23Z" style="fill:#fff"></path><path d="M220.38,311.3a4.47,4.47,0,0,1,2.37-.12,2.25,2.25,0,0,1,1.47,2.09,1.81,1.81,0,0,0,.82,1.53,1.87,1.87,0,0,0,.94.3c.37.08.75.12,1.12.22a4,4,0,0,1-2.37.09,2.27,2.27,0,0,1-1.39-2.13,1.78,1.78,0,0,0-.87-1.48,1.9,1.9,0,0,0-1-.28C221.14,311.45,220.76,311.4,220.38,311.3Z" style="fill:#fff"></path><path d="M192.58,279.91a4.47,4.47,0,0,1,2.37-.12,2.28,2.28,0,0,1,1.47,2.09,1.79,1.79,0,0,0,.82,1.53,1.83,1.83,0,0,0,.93.3c.38.08.76.12,1.13.22a4,4,0,0,1-2.37.09,2.3,2.3,0,0,1-1.4-2.13,1.76,1.76,0,0,0-.87-1.48,2,2,0,0,0-.95-.28C193.33,280.06,193,280,192.58,279.91Z" style="fill:#fff"></path><path d="M177.51,328.12a4.43,4.43,0,0,1,2.36-.12,2.23,2.23,0,0,1,1.47,2.08,1.82,1.82,0,0,0,.82,1.54,1.87,1.87,0,0,0,.94.3c.38.07.75.12,1.13.22a4.15,4.15,0,0,1-2.38.09,2.29,2.29,0,0,1-1.39-2.13,1.8,1.8,0,0,0-.87-1.49,2,2,0,0,0-1-.27C178.26,328.26,177.88,328.22,177.51,328.12Z" style="fill:#fff"></path><path d="M241.18,298.22A4.46,4.46,0,0,1,239.6,300a2.28,2.28,0,0,1-2.52-.44,1.78,1.78,0,0,0-1.66-.5,1.81,1.81,0,0,0-.88.45c-.32.21-.61.44-.95.64.43-.61.75-1.36,1.62-1.74a2.31,2.31,0,0,1,2.49.51,1.74,1.74,0,0,0,1.66.44,1.9,1.9,0,0,0,.87-.48C240.55,298.65,240.85,298.41,241.18,298.22Z" style="fill:#fff"></path><path d="M168.27,315.57a4.35,4.35,0,0,1-1.59,1.76,2.05,2.05,0,0,1-1.17.19c.06-.26.11-.53.17-.8a2,2,0,0,0,.77,0,1.9,1.9,0,0,0,.87-.48C167.64,316,167.93,315.76,168.27,315.57Z" style="fill:#fff"></path><path d="M199.72,348.28a4.49,4.49,0,0,1-1.59,1.76,2.28,2.28,0,0,1-2.52-.44,1.78,1.78,0,0,0-1.66-.5,1.86,1.86,0,0,0-.88.45c-.31.21-.61.44-.95.64.44-.61.75-1.36,1.62-1.74a2.31,2.31,0,0,1,2.49.51,1.75,1.75,0,0,0,1.66.44,1.93,1.93,0,0,0,.88-.48C199.08,348.71,199.38,348.47,199.72,348.28Z" style="fill:#fff"></path><path d="M202.08,308.58a4.45,4.45,0,0,1-1.59,1.77,2.26,2.26,0,0,1-2.51-.44,1.81,1.81,0,0,0-1.66-.51,1.9,1.9,0,0,0-.88.45c-.32.22-.62.45-.95.65.43-.62.75-1.37,1.61-1.75a2.29,2.29,0,0,1,2.49.52,1.8,1.8,0,0,0,1.67.44,2,2,0,0,0,.87-.48C201.45,309,201.74,308.78,202.08,308.58Z" style="fill:#fff"></path><path d="M228.74,341.56a4.57,4.57,0,0,1-1.59,1.76,2.28,2.28,0,0,1-2.52-.44,1.78,1.78,0,0,0-1.66-.5,1.88,1.88,0,0,0-.88.44c-.31.22-.61.45-1,.65.44-.61.75-1.36,1.62-1.74a2.27,2.27,0,0,1,2.49.51,1.77,1.77,0,0,0,1.66.44,2.08,2.08,0,0,0,.88-.48C228.1,342,228.4,341.75,228.74,341.56Z" style="fill:#fff"></path><path d="M218.41,247.34c0,.2-.08.41-.13.61-.06-.34-.16-.69-.21-1Z" style="fill:#fff"></path><path d="M244.37,325.16a4.37,4.37,0,0,1,.13,2.37,2.28,2.28,0,0,1-2.09,1.47,1.78,1.78,0,0,0-1.53.82,1.84,1.84,0,0,0-.31.93c-.07.38-.11.76-.21,1.13a4,4,0,0,1-.09-2.37,2.28,2.28,0,0,1,2.12-1.4,1.77,1.77,0,0,0,1.49-.87,2,2,0,0,0,.28-.95C244.23,325.91,244.27,325.54,244.37,325.16Z" style="fill:#fff"></path><path d="M236.28,280.68s0,.07,0,.11c-.07.38-.12.75-.22,1.13a4.66,4.66,0,0,1-.16-2.15Z" style="fill:#fff"></path><path d="M217.27,288a4.47,4.47,0,0,1,.13,2.37,2.28,2.28,0,0,1-2.09,1.47,1.78,1.78,0,0,0-1.53.82,1.75,1.75,0,0,0-.31.93c-.07.38-.12.76-.22,1.13a4,4,0,0,1-.08-2.37,2.28,2.28,0,0,1,2.12-1.4,1.77,1.77,0,0,0,1.49-.87,2.08,2.08,0,0,0,.28-.95C217.13,288.78,217.17,288.41,217.27,288Z" style="fill:#fff"></path><path d="M166.48,342.54a4.47,4.47,0,0,1,.12,2.37,2.26,2.26,0,0,1-2.08,1.47,1.77,1.77,0,0,0-1.54.82,1.8,1.8,0,0,0-.3.93c-.07.38-.12.75-.22,1.13a4.11,4.11,0,0,1-.09-2.37,2.3,2.3,0,0,1,2.13-1.4,1.77,1.77,0,0,0,1.49-.87,2,2,0,0,0,.27-.95C166.34,343.29,166.38,342.91,166.48,342.54Z" style="fill:#fff"></path><path d="M182.87,263.94a4.47,4.47,0,0,1,.13,2.37,2.28,2.28,0,0,1-2.09,1.47,1.83,1.83,0,0,0-1.84,1.75c-.07.38-.12.75-.22,1.13a4,4,0,0,1-.08-2.37,2.27,2.27,0,0,1,2.12-1.4,1.77,1.77,0,0,0,1.49-.87,2.13,2.13,0,0,0,.28-1C182.73,264.69,182.77,264.31,182.87,263.94Z" style="fill:#fff"></path><path d="M182.87,296.83a4.43,4.43,0,0,1,.13,2.36,2.26,2.26,0,0,1-2.09,1.47,1.85,1.85,0,0,0-1.84,1.76c-.07.38-.12.75-.22,1.13a4.07,4.07,0,0,1-.08-2.38,2.27,2.27,0,0,1,2.12-1.39,1.8,1.8,0,0,0,1.49-.87,2.13,2.13,0,0,0,.28-1C182.73,297.58,182.77,297.2,182.87,296.83Z" style="fill:#fff"></path><path d="M209.31,325.16a4.47,4.47,0,0,1,.12,2.37,2.26,2.26,0,0,1-2.09,1.47,1.79,1.79,0,0,0-1.53.82,1.83,1.83,0,0,0-.3.93c-.08.38-.12.76-.22,1.13a4,4,0,0,1-.09-2.37,2.3,2.3,0,0,1,2.13-1.4,1.76,1.76,0,0,0,1.48-.87,1.87,1.87,0,0,0,.28-.95C209.17,325.91,209.21,325.54,209.31,325.16Z" style="fill:#fff"></path><path d="M195.92,254.8a4.35,4.35,0,0,1,1.59-1.76,2.24,2.24,0,0,1,2.51.44,1.78,1.78,0,0,0,1.66.5,1.81,1.81,0,0,0,.88-.45c.32-.21.62-.45.95-.64-.43.61-.75,1.36-1.61,1.74a2.31,2.31,0,0,1-2.49-.51,1.77,1.77,0,0,0-1.67-.44,1.9,1.9,0,0,0-.87.48C196.55,254.37,196.26,254.61,195.92,254.8Z" style="fill:#fff"></path><path d="M210.64,256.51c-5,2.31-15.6-3.87-20.48-9.64-.33-.39-.6-5.22-1.21-11.07-.38-3.55-.89-7.49-1.61-11.06-.15-.73,23.45.89,23.45.89a58.21,58.21,0,0,0,.63,14.12,7.48,7.48,0,0,0,.45,1.43c0,.07,0,.15.08.24C213,244.1,215.46,254.28,210.64,256.51Z" style="fill: rgb(247, 169, 160);"></path><path d="M188.73,224.56c2.26,5.81,9,19.61,21,17.45a13,13,0,0,0,2.26-.59.75.75,0,0,0-.08-.24,9.45,9.45,0,0,1-.45-1.42,58.12,58.12,0,0,1-.62-14.14S193.76,224.46,188.73,224.56Z" style="fill:#263238"></path><path d="M178.39,202.34c.15,8.45,11.43,29.35,18.51,32.53,10.27,4.61,23.47,1.07,26.48-10.44,2.91-11.16-12.27-38.14-19.84-40.66C192.38,180.06,178.17,189.85,178.39,202.34Z" style="fill: rgb(247, 169, 160);"></path><path d="M178.39,202.34c.15,8.45,11.43,29.35,18.51,32.53,10.27,4.61,23.47,1.07,26.48-10.44,2.91-11.16-12.27-38.14-19.84-40.66C192.38,180.06,178.17,189.85,178.39,202.34Z" style="fill: rgb(247, 169, 160);"></path><path d="M199.31,205.37a20.24,20.24,0,0,0,1.72-1.19c.66-.46,1.23-.76,1.53-1.54a1.09,1.09,0,0,0-.5-1.22,2.68,2.68,0,0,0-2.68.44,4,4,0,0,0-1.74,2.23A1.15,1.15,0,0,0,199.31,205.37Z" style="fill:#263238"></path><path d="M214.28,198.66a20,20,0,0,1-2.05.39,3.36,3.36,0,0,1-2.17,0,1.07,1.07,0,0,1-.51-1.22,2.66,2.66,0,0,1,2.2-1.58,3.92,3.92,0,0,1,2.81.33A1.16,1.16,0,0,1,214.28,198.66Z" style="fill:#263238"></path><path d="M209,223.23a2.43,2.43,0,0,0,1.6.27,4.21,4.21,0,0,0,1.37-1.08.05.05,0,0,1,.09,0,2.1,2.1,0,0,1-1.45,1.63,1.68,1.68,0,0,1-1.71-.73A.08.08,0,0,1,209,223.23Z" style="fill:#263238"></path><path d="M208.5,218.24a5.37,5.37,0,0,0,4.27.64,6.64,6.64,0,0,0,1.79-.74,1.65,1.65,0,0,0,.31-.2,2.4,2.4,0,0,0,.29-.19.39.39,0,0,0,.14-.46h0a.5.5,0,0,0-.08-.14h0l-.06-.12c-.49-1.11-1.38-2.74-1.38-2.74.49,0,3,0,2.67-.59-2.52-4.62-5.32-9.76-8.81-13.83a.14.14,0,0,0-.24.16c2.25,4.54,5.28,8.65,7.61,13.18a9.21,9.21,0,0,0-2.63.38c-.13.12,1.78,3.1,2,3.62l0,.06c-1.74,1.1-3.39,1.2-5.77.8C208.43,218,208.37,218.17,208.5,218.24Z" style="fill:#263238"></path><path d="M213.65,217.89a6.39,6.39,0,0,1-1.47,2.87,2.86,2.86,0,0,1-1.53.84c-1.29.24-1.81-.79-2-1.79a6.53,6.53,0,0,1-.13-1.61A8.25,8.25,0,0,0,213.65,217.89Z" style="fill:#263238"></path><path d="M212.18,220.76a2.86,2.86,0,0,1-1.53.84c-1.29.24-1.81-.79-2-1.79A3,3,0,0,1,212.18,220.76Z" style="fill:#ff98b9"></path><path d="M216,203.56a2.23,2.23,0,0,0-1-.69,1.62,1.62,0,0,0-1.29.15,1.48,1.48,0,0,0-.69,1.12,2.51,2.51,0,0,0,.19,1.17,4.65,4.65,0,0,0,.32.63,3.14,3.14,0,0,0,1,1.07,4.12,4.12,0,0,1-.5-.95,5.48,5.48,0,0,1-.3-.92c-.15-.64-.1-1.28.35-1.51a1.26,1.26,0,0,1,1.5.33,10.2,10.2,0,0,1,1.37,1.53A4.49,4.49,0,0,0,216,203.56Z" style="fill:#263238"></path><path d="M205.12,209a2.24,2.24,0,0,0-.88-.81,1.63,1.63,0,0,0-1.3,0,1.48,1.48,0,0,0-.84,1,2.59,2.59,0,0,0,0,1.18,4.12,4.12,0,0,0,.24.67,3.09,3.09,0,0,0,.85,1.19,5.23,5.23,0,0,1-.37-1,6.55,6.55,0,0,1-.17-.95c-.06-.66.07-1.28.55-1.45s1,0,1.44.52a10.58,10.58,0,0,1,1.16,1.7A4.66,4.66,0,0,0,205.12,209Z" style="fill:#263238"></path><path d="M182.63,220.65c6.13-1.5,7-9.65,3.72-14.94,0,0,16.6-3,13.27-16a13.16,13.16,0,0,0,12.19,2.42l3.22,4.51c1.48-1,1.81-6.57-3.36-8.93,0,0-2.32-6.28-8.25-8.6a9.13,9.13,0,0,0-9.78,1.69,13.84,13.84,0,0,0-10.37.72c-5.62,2.63-6.32,8.76-6.32,8.76s-7.41,4-6.95,10.07a12.2,12.2,0,0,0,4.55,8.86s-1.27,2.84,1.27,7.3C177.45,219.35,180.8,221.1,182.63,220.65Z" style="fill:#263238"></path><path d="M198.9,188.66a15.79,15.79,0,0,1,1,3.11,13.35,13.35,0,0,1,.39,3.2,8.49,8.49,0,0,1-2.22,5.78c-1.36,1.65-3.43,2.5-5.4,3.35-1,.3-2.07.68-3.13.92s-2.15.43-3.23.69c1.1-.08,2.19-.21,3.3-.31s2.16-.49,3.25-.73a13.51,13.51,0,0,0,5.78-3.4,8.85,8.85,0,0,0,2.24-6.3A13.4,13.4,0,0,0,198.9,188.66Z" style="fill:#263238"></path><path d="M209.48,193.41a17.23,17.23,0,0,1-5.67-1,10.62,10.62,0,0,1-2.48-1.34,13.68,13.68,0,0,1-2.12-2,7.06,7.06,0,0,0,1.74,2.44,7.79,7.79,0,0,0,2.58,1.61,9.56,9.56,0,0,0,3,.63A8.77,8.77,0,0,0,209.48,193.41Z" style="fill:#263238"></path><path d="M205.56,218.58a7,7,0,1,1,3.17-10.64h0a7,7,0,0,1-1.64,9.81A6.52,6.52,0,0,1,205.56,218.58Zm-4.76-12.23a6.1,6.1,0,1,0,7.16,2.14A6.14,6.14,0,0,0,200.8,206.35Z" style="fill:#FF7B00"></path><path d="M219.77,210.94c-2.51,1-5.78-.7-7.5-3.94a8.38,8.38,0,0,1-1-5,4.38,4.38,0,0,1,6.62-3.52,8.38,8.38,0,0,1,3.61,3.65c1.82,3.42,1.23,7.31-1.32,8.66A3.89,3.89,0,0,1,219.77,210.94ZM214.36,199l-.32.15a3.76,3.76,0,0,0-1.83,2.93,7.45,7.45,0,0,0,.89,4.47c1.57,3,4.55,4.48,6.65,3.36s2.51-4.43.94-7.39a7.53,7.53,0,0,0-3.2-3.24A3.89,3.89,0,0,0,214.36,199Z" style="fill:#FF7B00"></path><path d="M208.9,208.77l-.87-.35c.52-1.29,2.13-3.51,4.51-2.69l-.3.89C210.11,205.88,209,208.65,208.9,208.77Z" style="fill:#FF7B00"></path><path d="M182.08,225.06h-.94c0-.44,0-4.32,1.69-5.61s13.27-6.06,13.77-6.26l.36.86c-3.35,1.4-12.33,5.22-13.56,6.15S182.07,224,182.08,225.06Z" style="fill:#FF7B00"></path><path d="M189,218.9s-7.47-5.4-10.09-2.5,4.73,11.95,9,12a4.09,4.09,0,0,0,4.46-3.87Z" style="fill: rgb(247, 169, 160);"></path><path d="M181.1,218.94a.06.06,0,0,0,0,.11c3,.15,5.3,2.14,7.17,4.36-1.13-.71-2.4-.88-3.39.53-.06.07,0,.16.12.11a2.53,2.53,0,0,1,2.9-.08,11.87,11.87,0,0,1,2,1.69c.21.19.6-.08.41-.33l0-.05C189.16,221.86,184.87,218,181.1,218.94Z" style="fill:#263238"></path><path d="M190.27,250.6a99.71,99.71,0,0,0,9,6.82c3,1.88,6.39,3.41,9.82,3s6.36-1.93,6.69-5.73c.28-3.32-.37-5.69-1.69-10.12-.05-.19.17-.28.24-.09,1.9,5.34,4.11,12.29-.22,15.17-4.84,3.22-10.65,1.42-15.18-1.67a52,52,0,0,1-8.75-7.32S190.22,250.55,190.27,250.6Z" style="fill:#263238"></path><path d="M308.67,262.14c-1,1.88-14.19,13.16-19.42,15.39s-20.2,2.27-22.77,1.09-9.37-3.64-9.31-5.69,3.77-4.58,5-4.52,6,0,6.79.31,9.19-5.14,9.76-6.16-.91-16.67,4.34-20.09S308.67,262.14,308.67,262.14Z" style="fill:#FF7B00"></path><path d="M308.67,262.14c-1,1.88-14.19,13.16-19.42,15.39s-20.2,2.27-22.77,1.09-9.37-3.64-9.31-5.69,3.77-4.58,5-4.52,6,0,6.79.31,9.19-5.14,9.76-6.16-.91-16.67,4.34-20.09S308.67,262.14,308.67,262.14Z" style="opacity:0.2"></path><path d="M267.68,215.52s-20.74-6.64-24.91-6.34-15.47,6-15.63,8.54,4.8,5,6.65,5.18,10.16-3.5,11.05-3.62c.51-.06,6.59,9.46,16.13,14.5,7.09,3.74,13.47,5,13.92,4.94C276,238.51,268,217,267.68,215.52Z" style="fill:#FF7B00"></path><path d="M267.68,215.52s-20.74-6.64-24.91-6.34-15.47,6-15.63,8.54,4.8,5,6.65,5.18,10.16-3.5,11.05-3.62c.51-.06,6.59,9.46,16.13,14.5,7.09,3.74,13.47,5,13.92,4.94C276,238.51,268,217,267.68,215.52Z" style="opacity:0.2"></path><path d="M330.1,231.58c2.62,5.67,4.42,9.54.88,19.83-4,11.48-25.25,23.81-38.39,13.85-20-15.14-25.3-43.47-27.58-48.08-3.12-6.34-22-1.51-30.85-6.76a15.49,15.49,0,0,1-2.87-2.27h0c-.32-.31-.63-.63-.94-1l0,0a28.38,28.38,0,0,1-4.78-7.19h0c-1-2.26-1.34-4.21-.55-5.07,1.1-1.21,3.39-1.16,6.11-1.21a14.77,14.77,0,0,0,7.06-1.48c5.56-2.76,9.19-11.62,16.83-13.05,3.68-.69,16.4,1.24,21.13,4.14,6.48,4,6.37,14.92,12.49,19.81C297.83,210.46,326.88,224.58,330.1,231.58Z" style="fill:#FF7B00"></path><path d="M330.1,231.58c2.62,5.67,4.42,9.54.88,19.83-4,11.48-25.25,23.81-38.39,13.85-20-15.14-25.3-43.47-27.58-48.08-3.12-6.34-22-1.51-30.85-6.76a15.49,15.49,0,0,1-2.87-2.27h0c-.32-.31-.63-.63-.94-1l0,0a28.38,28.38,0,0,1-4.78-7.19h0c-1-2.26-1.34-4.21-.55-5.07,1.1-1.21,3.39-1.16,6.11-1.21a14.77,14.77,0,0,0,7.06-1.48c5.56-2.76,9.19-11.62,16.83-13.05,3.68-.69,16.4,1.24,21.13,4.14,6.48,4,6.37,14.92,12.49,19.81C297.83,210.46,326.88,224.58,330.1,231.58Z" style="opacity:0.1"></path><path d="M328.69,230.45s19,5.57,20.06-11.84c.07-1.22,5.54,8-1.92,16.89s-22,4.83-22,4.83S322.29,233.48,328.69,230.45Z" style="fill:#FF7B00"></path><path d="M328.69,230.45s19,5.57,20.06-11.84c.07-1.22,5.54,8-1.92,16.89s-22,4.83-22,4.83S322.29,233.48,328.69,230.45Z" style="opacity:0.1"></path><path d="M256.62,200.64c-2.59,5-9.08,6.32-12.22,1.1a8.4,8.4,0,0,1-.82-6.51A7.23,7.23,0,0,1,250,189.3C255.42,188.89,258.92,196.19,256.62,200.64Z" style="opacity:0.1"></path><path d="M246.49,198.35c-1.07-.25-1.58-1.48-1.38-2.95s1.22-2.48,2.47-2.2c1.42.32,1.61,1.93,1.26,3.11S247.65,198.61,246.49,198.35Z" style="fill:#263238"></path><path d="M227,200.84c-.86.15-4-3.52-3.78-5.18s6.85-3,7.78-1.81S228.66,200.54,227,200.84Z" style="fill:#263238"></path><path d="M222.25,208.51c-.64-1.5,1-2.67,2.12-2.72,2.36-.12,3.2,2.52,7.09,2.24.5,0,.32-1.28.32-1.28a3.67,3.67,0,0,1,2.21.47c-.36,2-1.56,2.87-3.36,3.45C227.57,211.65,223,210.15,222.25,208.51Z" style="fill:#ff97b8"></path><path d="M224.23,207.31a9.05,9.05,0,0,0,4.9,1.65,6.7,6.7,0,0,0,2.53-.3c.4-.14.77-.34.86-.75a2.84,2.84,0,0,0,.11-1.3,2.57,2.57,0,0,1,.12,1.35,1.06,1.06,0,0,1-.34.66,2.17,2.17,0,0,1-.6.4,5.89,5.89,0,0,1-2.71.44,7.36,7.36,0,0,1-2.66-.6A6.37,6.37,0,0,1,224.23,207.31Z" style="fill:#263238"></path><path d="M235.63,204.62c-.77,4.92-5.4-.19-6.3-1.22a32.79,32.79,0,0,1-3.63-5.26c0-.07-.13,0-.12.05.34,2.42,5,8,5.4,8.42.23.25,1.06,1,.46,1.1s-1.34-.72-1.69-1c-.09-.08-.23.06-.15.16.34.37,2.55,2.35,2.85,1.12.08-.36-.25-.76-.54-1.08l.19.13c2.53,1.42,3.58,0,3.74-2.38A.11.11,0,1,0,235.63,204.62Z" style="fill:#263238"></path><path d="M274.51,221s-20.75-6.58-24.93-6.27-15.44,6.07-15.6,8.59,4.82,5,6.67,5.17,10.15-3.53,11-3.66c.51-.07,6.62,9.44,16.17,14.45,7.1,3.72,13.49,5,13.94,4.9C282.86,243.92,274.81,222.45,274.51,221Z" style="fill:#FF7B00"></path><path d="M274.51,221s-20.75-6.58-24.93-6.27-15.44,6.07-15.6,8.59,4.82,5,6.67,5.17,10.15-3.53,11-3.66c.51-.07,6.62,9.44,16.17,14.45,7.1,3.72,13.49,5,13.94,4.9C282.86,243.92,274.81,222.45,274.51,221Z" style="opacity:0.1"></path><path d="M277.27,219.41c.07,0,0-.13,0-.11-.71.22-1.43.43-2.16.59-.45.1-.89.19-1.34.27-2.5-.52-5-1-7.46-1.69-.08,0-.14.1-.05.13a60.08,60.08,0,0,0,5.85,1.84,30.39,30.39,0,0,0,6,.88c.1,0,.15-.15,0-.17-1.26-.34-2.54-.61-3.82-.88.3,0,.6-.09.9-.16A12,12,0,0,0,277.27,219.41Z" style="fill:#263238"></path><path d="M318.49,247.93c1,1.85,3.17,19.09,2.15,24.69s-9.24,18.11-11.64,19.6-8.2,5.82-9.88,4.64-1.74-5.68-1-6.66,3.33-5,4-5.49.77-10.5.24-11.55-14.42-8.42-14.38-14.68S318.49,247.93,318.49,247.93Z" style="fill:#FF7B00"></path><path d="M318.49,247.93c1,1.85,3.17,19.09,2.15,24.69s-9.24,18.11-11.64,19.6-8.2,5.82-9.88,4.64-1.74-5.68-1-6.66,3.33-5,4-5.49.77-10.5.24-11.55-14.42-8.42-14.38-14.68S318.49,247.93,318.49,247.93Z" style="opacity:0.1"></path><path d="M321.91,250.8c0-.07.15,0,.11.08-.39.74-.76,1.5-1.09,2.28-.2.47-.39,1-.57,1.43.07,2.88.1,5.76.36,8.62a.08.08,0,0,1-.16,0c-.35-2.29-.71-4.55-.85-6.87a33.09,33.09,0,0,1,.24-6.82c0-.11.19-.14.2,0,.11,1.47.16,2.94.2,4.42.11-.33.22-.65.36-1A13.32,13.32,0,0,1,321.91,250.8Z" style="fill:#263238"></path><path d="M265.74,190.61c1.75,2.73,16.56,18.35,24.12,17.07s14.17-10.63,10.79-16.9-27.35-10.7-30.92-9.61A6.41,6.41,0,0,0,265.74,190.61Z" style="fill:#FF7B00"></path><path d="M265.74,190.61c1.75,2.73,16.56,18.35,24.12,17.07s14.17-10.63,10.79-16.9-27.35-10.7-30.92-9.61A6.41,6.41,0,0,0,265.74,190.61Z" style="opacity:0.2"></path><path d="M192.79,279.37c26.34,23.07,60.29,42.43,68.38,41.82,11.08-.85,38.28-35.75,47.14-46.12,3.59-4.19-35.79-27.22-38.81-22.16-7.51,12.58-20.07,24.58-20.43,25.19-.76,1.28-38.3-10.24-49.25-14.22C175.49,255,179.71,267.92,192.79,279.37Z" style="fill: rgb(247, 169, 160);"></path><path d="M302.49,207a6.19,6.19,0,0,1,4.76,5.56,11.24,11.24,0,0,1,6.87.33c3.74,1.62,2.85,8.19,2.85,8.19a12.14,12.14,0,0,1,7.08,1.22c3.42,1.9,3.47,8.66,3.47,8.66a10.66,10.66,0,0,1,5.54,5c2.93,6.21-2.74,15-6.28,20.67s-18.89,18.33-21.57,21L268.8,255.25s8.7-29.82,13.81-35.86C286.92,214.3,297.41,205.89,302.49,207Z" style="fill: rgb(247, 169, 160);"></path><path d="M306.66,212.74c-5.87,4.31-10.15,10.12-14.76,15.69-.1.12.1.28.2.15,4.51-5.58,10.07-10.2,14.8-15.59A.18.18,0,0,0,306.66,212.74Z" style="fill:#263238"></path><path d="M316.42,220.94a18.88,18.88,0,0,0-3.24,3.77q-1.57,2.11-3.08,4.28c-2,2.9-4,5.83-5.83,8.83-.08.13.1.29.19.16,2-2.88,4.07-5.73,6.21-8.53q1.59-2.08,3.23-4.16a23,23,0,0,0,2.9-4A.25.25,0,0,0,316.42,220.94Z" style="fill:#263238"></path><path d="M327.43,231.12c-1.17.83-1.95,2.37-2.74,3.55-.89,1.33-1.79,2.67-2.69,4-1.81,2.66-3.62,5.31-5.53,7.9-.09.13.1.29.2.16,1.94-2.62,3.93-5.22,5.85-7.86q1.41-1.94,2.81-3.9a12.63,12.63,0,0,0,2.24-3.76A.09.09,0,0,0,327.43,231.12Z" style="fill:#263238"></path><path d="M228.79,272.94c4.25,1.14,8.5,2.28,12.75,3.36,2.13.52,4.28,1,6.4,1.37a5.1,5.1,0,0,0,.76.05.48.48,0,0,0,.18,0,2.4,2.4,0,0,0,.23-.2c.37-.36.74-.78,1.1-1.18.71-.82,1.41-1.67,2.11-2.51l8.33-10.21c2.81-3.38,5.6-6.78,8.49-10.1-2.52,3.6-5.17,7.11-7.83,10.62s-5.4,6.95-8.26,10.3c-.71.84-1.43,1.67-2.17,2.5-.37.41-.74.82-1.16,1.22a3.25,3.25,0,0,1-.4.32,1.14,1.14,0,0,1-.61.13,6.3,6.3,0,0,1-.89-.07,59.51,59.51,0,0,1-6.45-1.58C237.13,275.74,233,274.39,228.79,272.94Z" style="fill:#263238"></path><path d="M221.42,307.37l5.14-39.1a251.59,251.59,0,0,0-28.9-9.2c-16.62-4.25-21.88,2.66-7.09,20.43A146.89,146.89,0,0,0,221.42,307.37Z" style="fill:#FF7B00"></path><path d="M219.73,268.25a4,4,0,0,1-2.37.09,2.28,2.28,0,0,1-1.4-2.13,1.76,1.76,0,0,0-.87-1.48,1.9,1.9,0,0,0-1-.28c-.37-.07-.75-.12-1.12-.22a10.62,10.62,0,0,1,1.53-.25h0l1.44.48h0a2.34,2.34,0,0,1,.85,1.74,1.78,1.78,0,0,0,.81,1.53,1.87,1.87,0,0,0,.94.3C219,268.11,219.35,268.15,219.73,268.25Z" style="fill:#fff"></path><path d="M192.58,279.91a4.47,4.47,0,0,1,2.37-.12,2.28,2.28,0,0,1,1.47,2.09,1.79,1.79,0,0,0,.82,1.53,1.83,1.83,0,0,0,.93.3c.38.08.76.12,1.13.22a4,4,0,0,1-2.37.09,2.3,2.3,0,0,1-1.4-2.13,1.76,1.76,0,0,0-.87-1.48,2,2,0,0,0-.95-.28C193.33,280.06,193,280,192.58,279.91Z" style="fill:#fff"></path><path d="M217.27,288a4.47,4.47,0,0,1,.13,2.37,2.28,2.28,0,0,1-2.09,1.47,1.78,1.78,0,0,0-1.53.82,1.75,1.75,0,0,0-.31.93c-.07.38-.12.76-.22,1.13a4,4,0,0,1-.08-2.37,2.28,2.28,0,0,1,2.12-1.4,1.77,1.77,0,0,0,1.49-.87,2.08,2.08,0,0,0,.28-.95C217.13,288.78,217.17,288.41,217.27,288Z" style="fill:#fff"></path><path d="M183,266.31a1.86,1.86,0,0,1-.38.65,6.84,6.84,0,0,1-.28-.88l0-.06a2.13,2.13,0,0,0,.28-1c.07-.37.11-.75.21-1.12A4.47,4.47,0,0,1,183,266.31Z" style="fill:#fff"></path><path d="M220.84,267.51c-.71,2.86-1,5.84-1.47,8.74s-.89,5.54-1.25,8.32c-.74,5.78-1.36,11.55-1.86,17.36a.09.09,0,0,0,.18,0q1.41-8.52,2.58-17.07c.4-2.84.71-5.68,1-8.53s.86-5.87,1-8.81A.09.09,0,0,0,220.84,267.51Z" style="fill:#263238"></path><path d="M222.13,301.81c-.07.16-.79,5.21-.79,5.28-4.21-3.35-8.39-6.38-12.53-9.83a161.72,161.72,0,0,1-12-11.26c-2.19-2.24-4.32-4.55-6.36-6.92-.05-.05-.12,0-.08.08,1.63,2.17,3.33,4.27,5.11,6.32-1-.9-2-1.85-3-2.83a.11.11,0,0,0-.16.14,21.07,21.07,0,0,0,4.28,4,119.64,119.64,0,0,0,17.26,15.86A62.31,62.31,0,0,0,221.8,308s.53-6,.49-6.14A.09.09,0,0,0,222.13,301.81Z" style="fill:#263238"></path><path d="M223,266.36c-1.34-.52-2.7-1-4.06-1.45l-.85-.28a52.91,52.91,0,0,0-4.75-2.56.05.05,0,0,0-.05.09c1.16.76,2.37,1.42,3.59,2.06-2.09-.68-4.2-1.32-6.35-1.79a.06.06,0,0,0,0,.11c2.66,1.09,5.41,2,8.11,3,1.31.48,7.8,2.7,7.8,2.79s-.35,3.73-.3,3.95.1.1.12,0l.7-4.43S224.1,266.81,223,266.36Z" style="fill:#263238"></path></g></svg>